<svg xmlns="http://www.w3.org/2000/svg" viewBox="0 0 512 512"><path fill="none" stroke="#000" stroke-linecap="round" stroke-linejoin="round" stroke-width="16" d="M128 232v-84.44h256M384 296v100.44H128v-100"/><path fill="none" stroke="#000" stroke-linecap="round" stroke-linejoin="round" stroke-width="16" d="M288 147.56V192h-64v-44.44M128 360.89h192M352 360.89h32M448 296v100.44h-64M480 208v64a24 24 0 0 1-24 24M96 232v-32l-64 64 64 64v-32M96 232h360M456 296H96M384 232v-84.44h64V232"/><path fill="none" stroke="#000" stroke-linecap="round" stroke-linejoin="round" stroke-width="16" d="M448 185.38a23.59 23.59 0 0 1 8-1.38 24 24 0 0 1 0 48"/></svg>